<svg width="17" height="16" viewBox="0 0 17 16" fill="none" xmlns="http://www.w3.org/2000/svg">
<path d="M12.0417 4L9.91668 2H7.08334L4.95834 4H3.89584V13.3333C3.89584 14.0667 4.53334 14.6667 5.31251 14.6667H11.6875C12.4667 14.6667 13.1042 14.0667 13.1042 13.3333V4H12.0417Z" fill="#9575CD"/>
<path d="M8.67708 13H8.32292C8.03958 13 7.79167 12.7667 7.79167 12.5V6.16666C7.79167 5.89999 8.03958 5.66666 8.32292 5.66666H8.67708C8.96042 5.66666 9.20833 5.89999 9.20833 6.16666V12.5C9.20833 12.7667 8.96042 13 8.67708 13ZM11.1562 13C10.8729 13 10.625 12.7667 10.625 12.5V6.16666C10.625 5.89999 10.8729 5.66666 11.1562 5.66666C11.4396 5.66666 11.6875 5.89999 11.6875 6.16666V12.5C11.6875 12.7667 11.4396 13 11.1562 13ZM5.84375 13C5.56042 13 5.3125 12.7667 5.3125 12.5V6.16666C5.3125 5.89999 5.56042 5.66666 5.84375 5.66666C6.12708 5.66666 6.375 5.89999 6.375 6.16666V12.5C6.375 12.7667 6.12708 13 5.84375 13Z" fill="#7454B3"/>
<path d="M3.89583 2.66666H13.1042C13.4937 2.66666 13.8125 2.96666 13.8125 3.33332V3.99999H3.1875V3.33332C3.1875 2.96666 3.50625 2.66666 3.89583 2.66666Z" fill="#B39DDB"/>
</svg>
